# xmcd CD database file
#
# Track frame offsets:
#	150
#	10408
#	21462
#	35493
#	50123
#	61582
#	75660
#	93520
#	103762
#	117859
#	129461
#	145727
#	157039
#	170718
#	181979
#	207563
#	224134
#	235553
#
# Disc length: 3409 seconds
#
# Revision: 0
# Processed by: cddbd v1.5.1PL2 Copyright (c) Steve Scherf et al.
# Submitted via: CDex 1.51
#
DISCID=060d4f12
DTITLE=Judy Garland - Vocal Jazz
DYEAR=2001
DGENRE=Jazz
TTITLE0=Over The Rainbow
TTITLE1=Stompin' At The Savoy
TTITLE2=Swing Mr. Charlie
TTITLE3=(Dear Mr. Gable) You Made Me Love You
TTITLE4=You Can't Have Everything
TTITLE5=All God's Chillun Got Rhythm
TTITLE6=In Between
TTITLE7=Figaro
TTITLE8=Oceans Apart
TTITLE9=Friendship
TTITLE10=I'm Nobody's Baby
TTITLE11=Alone
TTITLE12=Singin' In The Rain
TTITLE13=It's A Great Day For The Irish
TTITLE14=Minnie From Trinidad
TTITLE15=Chin Up, Cheerio, Carry On!
TTITLE16=FDR Jones
TTITLE17=How About You
EXTD=YEAR: 2001
EXTT0=
EXTT1=
EXTT2=
EXTT3=
EXTT4=
EXTT5=
EXTT6=
EXTT7=
EXTT8=
EXTT9=
EXTT10=
EXTT11=
EXTT12=
EXTT13=
EXTT14=
EXTT15=
EXTT16=
EXTT17=
PLAYORDER=
